<?xml version="1.0" encoding="UTF-8"?>
<svg width="21px" height="20px" viewBox="0 0 21 20" version="1.1" xmlns="http://www.w3.org/2000/svg" xmlns:xlink="http://www.w3.org/1999/xlink">
    <!-- Generator: Sketch 49.1 (51147) - http://www.bohemiancoding.com/sketch -->
    <title>Shape</title>
    <desc>Created with Sketch.</desc>
    <defs></defs>
    <g id="Details" stroke="none" stroke-width="1" fill="none" fill-rule="evenodd" fill-opacity="0.3">
        <g id="Action-Sheet" transform="translate(-42.000000, -351.000000)" fill="#000000" fill-rule="nonzero">
            <g id="Floating-card" transform="translate(20.000000, 328.000000)">
                <g id="Item-list" transform="translate(10.000000, 2.000000)">
                    <g id="Group-2" transform="translate(12.000000, 18.000000)">
                        <path d="M15.0753231,3 C13.2876462,3 11.6142,3.8075817 10.5,5.16067362 C9.3858,3.8075817 7.71235385,3 5.92467692,3 C2.65781538,3 0,5.6517986 0,8.91136725 C0,11.4637436 1.52533846,14.4159734 4.53369231,17.6860415 C6.84886154,20.2026368 9.36733846,22.1510653 10.0840154,22.6882865 L10.4998615,23 L10.9156615,22.6883325 C11.6324308,22.1510653 14.151,20.2025908 16.4661231,17.6861336 C19.4746154,14.4160655 21,11.4637896 21,8.91136725 C21,5.6517986 18.3421846,3 15.0753231,3 Z" id="Shape"></path>
                    </g>
                </g>
            </g>
        </g>
    </g>
</svg>