<?xml version="1.0" encoding="UTF-8"?>
<svg width="22px" height="18px" viewBox="0 0 22 18" version="1.1" xmlns="http://www.w3.org/2000/svg" xmlns:xlink="http://www.w3.org/1999/xlink">
    <!-- Generator: Sketch 49.1 (51147) - http://www.bohemiancoding.com/sketch -->
    <title></title>
    <desc>Created with Sketch.</desc>
    <defs></defs>
    <g id="Details" stroke="none" stroke-width="1" fill="none" fill-rule="evenodd">
        <g id="Action-Sheet" transform="translate(-41.000000, -448.000000)" fill="#B2B2B2">
            <path d="M41.2139326,461.196394 L41.2139326,459.216124 L52.3628942,459.216124 L52.3628942,461.196394 L41.2139326,461.196394 Z M59.1230501,460.461292 L62.4820321,460.461292 L62.4820321,462.120548 L59.1230501,462.120548 L59.1230501,465.52 L57.4233242,465.52 L57.4233242,462.120548 L54.0643422,462.120548 L54.0643422,460.461292 L57.4233242,460.461292 L57.4233242,457.06184 L59.1230501,457.06184 L59.1230501,460.461292 Z M58.0045375,448 L58.0045375,449.98027 L41.2139326,449.98027 L41.2139326,448 L58.0045375,448 Z M58.0045375,453.574481 L58.0045375,455.554751 L41.2139326,455.554751 L41.2139326,453.574481 L58.0045375,453.574481 Z" id="" transform="translate(51.847982, 456.760000) rotate(180.000000) translate(-51.847982, -456.760000) "></path>
        </g>
    </g>
</svg>