<?xml version="1.0" encoding="UTF-8"?>
<svg width="22px" height="20px" viewBox="0 0 22 20" version="1.1" xmlns="http://www.w3.org/2000/svg" xmlns:xlink="http://www.w3.org/1999/xlink">
    <!-- Generator: Sketch 49.1 (51147) - http://www.bohemiancoding.com/sketch -->
    <title>Group 3</title>
    <desc>Created with Sketch.</desc>
    <defs></defs>
    <g id="Details" stroke="none" stroke-width="1" fill="none" fill-rule="evenodd">
        <g id="Action-Sheet" transform="translate(-41.000000, -399.000000)">
            <g id="Group-3" transform="translate(41.000000, 399.000000)">
                <path d="M21.0260417,0 C21.291668,0 21.5203983,0.0892848214 21.7122396,0.267857143 C21.9040808,0.446429464 22,0.669641518 22,0.9375 L22,14.4642857 C22,15.6250058 21.8229184,16.44345 21.46875,16.9196429 C21.0850675,17.544646 20.4505253,17.8571429 19.5651042,17.8571429 L17.9270833,17.8571429 C17.3072886,17.8571429 16.7686655,17.656252 16.3111979,17.2544643 C15.8537304,16.8526766 15.625,16.3392888 15.625,15.7142857 C15.625,15.0892826 15.8537304,14.5758949 16.3111979,14.1741071 C16.7686655,13.7723194 17.3072886,13.5714286 17.9270833,13.5714286 L20.5833333,13.5714286 L20.5833333,5 L11.375,6.69642857 L11.375,17.0535714 C11.375,17.7380987 11.1831616,18.3482116 10.7994792,18.8839286 C10.7699651,18.9136906 10.7404515,18.9508926 10.7109375,18.9955357 C10.6814235,19.0401788 10.6666667,19.0773808 10.6666667,19.1071429 L10.578125,19.1964286 C10.1354145,19.7321455 9.57465617,20 8.89583333,20 L7.2578125,20 C6.63801773,20 6.10677305,19.7991092 5.6640625,19.3973214 C5.22135195,18.9955337 5,18.482146 5,17.8571429 C5,17.2321397 5.22135195,16.718752 5.6640625,16.3169643 C6.10677305,15.9151766 6.63801773,15.7142857 7.2578125,15.7142857 L9.95833333,15.7142857 L9.95833333,2.94642857 C9.98784737,2.64880804 10.1132801,2.35863237 10.3346354,2.07589286 C10.5559907,1.79315335 10.8289914,1.6071433 11.1536458,1.51785714 L20.8046875,0.0446428571 C20.8932296,0.0148808036 20.9670136,0 21.0260417,0 Z" id="" fill="#B2B2B2"></path>
                <path d="M6.46085275,1 C5.69470549,1 4.97751429,1.32303268 4.5,1.86426945 C4.02248571,1.32303268 3.30529451,1 2.53914725,1 C1.13906374,1 0,2.06071944 0,3.3645469 C0,4.38549742 0.653716484,5.56638937 1.94301099,6.8744166 C2.93522637,7.88105473 4.01457363,8.6604261 4.32172088,8.87531458 L4.49994066,9 L4.67814066,8.875333 C4.98532747,8.6604261 6.06471429,7.88103631 7.05690989,6.87445344 C8.34626374,5.56642621 9,4.38551584 9,3.3645469 C9,2.06071944 7.86093626,1 6.46085275,1 Z" id="Shape" fill-opacity="0.3" fill="#000000" fill-rule="nonzero"></path>
            </g>
        </g>
    </g>
</svg>