<?xml version="1.0" encoding="UTF-8"?>
<svg width="17px" height="17px" viewBox="0 0 17 17" version="1.1" xmlns="http://www.w3.org/2000/svg" xmlns:xlink="http://www.w3.org/1999/xlink">
    <!-- Generator: Sketch 49.1 (51147) - http://www.bohemiancoding.com/sketch -->
    <title>Close btn</title>
    <desc>Created with Sketch.</desc>
    <defs></defs>
    <g id="Details" stroke="none" stroke-width="1" fill="none" fill-rule="evenodd" fill-opacity="0.8">
        <g id="Action-Sheet" transform="translate(-45.000000, -600.000000)" fill="#000000" fill-rule="nonzero">
            <g id="Floating-card" transform="translate(20.000000, 328.000000)">
                <g id="Item-list" transform="translate(10.000000, 2.000000)">
                    <g id="Group-2" transform="translate(15.000000, 265.000000)">
                        <g id="Close-btn" transform="translate(0.000000, 5.000000)">
                            <path d="M16.7507437,0.249259384 C16.418402,-0.0830864614 15.8812155,-0.0830864614 15.5488738,0.249259384 L8.5,7.29822127 L1.45112622,0.249259384 C1.11878453,-0.0830864614 0.58159796,-0.0830864614 0.249256269,0.249259384 C-0.0830854229,0.58160523 -0.0830854229,1.11879852 0.249256269,1.45114436 L7.29813005,8.50010625 L0.249256269,15.5490681 C-0.0830854229,15.881414 -0.0830854229,16.4186073 0.249256269,16.7509531 C0.415002125,16.916701 0.632596685,17 0.850191245,17 C1.06778581,17 1.28538037,16.916701 1.45112622,16.7509531 L8.5,9.70199123 L15.5488738,16.7509531 C15.7146196,16.916701 15.9322142,17 16.1498088,17 C16.3674033,17 16.5849979,16.916701 16.7507437,16.7509531 C17.0830854,16.4186073 17.0830854,15.881414 16.7507437,15.5490681 L9.70186995,8.50010625 L16.7507437,1.45114436 C17.0830854,1.11879852 17.0830854,0.58160523 16.7507437,0.249259384 Z" id="Shape"></path>
                        </g>
                    </g>
                </g>
            </g>
        </g>
    </g>
</svg>