<?xml version="1.0" encoding="UTF-8"?>
<svg width="23px" height="22px" viewBox="0 0 23 22" version="1.1" xmlns="http://www.w3.org/2000/svg" xmlns:xlink="http://www.w3.org/1999/xlink">
    <!-- Generator: Sketch 49.1 (51147) - http://www.bohemiancoding.com/sketch -->
    <title>favorite</title>
    <desc>Created with Sketch.</desc>
    <defs></defs>
    <g id="Details" stroke="none" stroke-width="1" fill="none" fill-rule="evenodd" opacity="0.2">
        <g id="Top-100" transform="translate(-128.000000, -629.000000)" fill="#000000" fill-rule="nonzero">
            <g id="Nav" transform="translate(-7.000000, 616.000000)">
                <g id="favorite" transform="translate(135.000000, 13.000000)">
                    <path d="M16.5110681,0 C14.5531363,0 12.7203143,0.888339869 11.5,2.37674098 C10.2796857,0.888339869 8.44686374,1.79963346e-16 6.48893187,1.79963346e-16 C2.91094066,0 0,2.91697846 0,6.50250398 C0,9.31011791 1.67060879,12.5575708 4.96547253,16.1546457 C7.50113407,18.9229005 10.2594659,21.0661718 11.0443978,21.6571151 L11.4998484,22 L11.9552484,21.6571658 C12.7402813,21.0661718 15.4987143,18.9228499 18.0343253,16.154747 C21.3293407,12.5576721 23,9.31016857 23,6.50250398 C23,2.91697846 20.0890593,0 16.5110681,0 Z" id="Shape"></path>
                </g>
            </g>
        </g>
    </g>
</svg>