<?xml version="1.0" encoding="UTF-8"?>
<svg width="27px" height="26px" viewBox="0 0 27 26" version="1.1" xmlns="http://www.w3.org/2000/svg" xmlns:xlink="http://www.w3.org/1999/xlink">
    <!-- Generator: Sketch 49.1 (51147) - http://www.bohemiancoding.com/sketch -->
    <title>sound-bars-pulse</title>
    <desc>Created with Sketch.</desc>
    <defs></defs>
    <g id="Details" stroke="none" stroke-width="1" fill="none" fill-rule="evenodd">
        <g id="Top-100" transform="translate(-169.000000, -627.000000)" fill="#CCCCCC" fill-rule="nonzero">
            <g id="sound-bars-pulse" transform="translate(169.000000, 627.000000)">
                <path d="M1.5,19 C0.671576763,19 0,18.3609959 0,17.5714286 L0,10.4285714 C0,9.63959692 0.671576763,9 1.5,9 C2.32842324,9 3,9.63959692 3,10.4285714 L3,17.5714286 C3,18.3592175 2.32842324,19 1.5,19 Z" id="Shape"></path>
                <path d="M5.49999978,21 C4.67157667,21 4,20.4031254 4,19.6668511 L4,6.33314894 C4,5.59687457 4.67157667,5 5.49999978,5 C6.3284229,5 6.99999957,5.59687457 6.99999957,6.33314894 L6.99999957,19.6668511 C7.00062197,20.4031254 6.3284229,21 5.49999978,21 Z" id="Shape"></path>
                <path d="M9.49968886,20 C8.67143746,20 8,19.3873602 8,18.6316387 L8,8.36836129 C8,7.61263976 8.67143746,7 9.49968886,7 C10.3279403,7 11,7.61263976 11,8.36836129 L11,18.6316387 C10.9993777,19.3873602 10.3279403,20 9.49968886,20 Z" id="Shape"></path>
                <path d="M13.5,23 C12.6715768,23 12,22.3831011 12,21.6208475 L12,4.37915248 C12,3.61747117 12.6715768,3 13.5,3 C14.3284232,3 15,3.61747117 15,4.37915248 L15,21.6202753 C15,22.3825288 14.3284232,23 13.5,23 Z" id="Shape"></path>
                <path d="M17.5,26 C16.6721992,26 16,25.4031064 16,24.6668085 L16,1.33319149 C16,0.596893617 16.6721992,0 17.5,0 C18.3290456,0 19,0.596893617 19,1.33319149 L19,24.6668085 C19,25.4031064 18.3290456,26 17.5,26 Z" id="Shape"></path>
                <path d="M21.5,21 C20.6709544,21 20,20.4031254 20,19.6668511 L20,6.33314894 C20,5.59687457 20.6709544,5 21.5,5 C22.3278008,5 23,5.59687457 23,6.33314894 L23,19.6668511 C23,20.4031254 22.3278008,21 21.5,21 Z" id="Shape"></path>
                <path d="M25.5,17 C24.6715768,17 24,16.30355 24,15.4450899 L24,11.5555556 C24,10.69645 24.6715768,10 25.5,10 C26.3284232,10 27,10.69645 27,11.5555556 L27,15.4450899 C27,16.30355 26.3284232,17 25.5,17 Z" id="Shape"></path>
            </g>
        </g>
    </g>
</svg>