<?xml version="1.0" encoding="UTF-8"?>
<svg width="67px" height="66px" viewBox="0 0 67 66" version="1.1" xmlns="http://www.w3.org/2000/svg" xmlns:xlink="http://www.w3.org/1999/xlink">
    <!-- Generator: Sketch 49.1 (51147) - http://www.bohemiancoding.com/sketch -->
    <title>Pause</title>
    <desc>Created with Sketch.</desc>
    <defs></defs>
    <g id="Details" stroke="none" stroke-width="1" fill="none" fill-rule="evenodd">
        <g id="Playing-Now-2" transform="translate(-155.000000, -523.000000)" fill="#FFFFFF">
            <g id="Pause" transform="translate(154.500000, 523.000000)">
                <circle id="Oval-2" fill-opacity="0.6" cx="33.75" cy="33" r="33"></circle>
                <path d="M46.1171875,31.0026042 C46.5946204,31.3932311 46.8333333,31.8923581 46.8333333,32.5 C46.8333333,33.1076419 46.5946204,33.6067689 46.1171875,33.9973958 L28.0182292,44.8046875 C27.7578112,44.9348965 27.5190983,45 27.3020833,45 C26.9548594,45 26.651043,44.869793 26.390625,44.609375 C26.130207,44.348957 26,44.0451406 26,43.6979167 L26,21.3020833 C26,20.9548594 26.130207,20.651043 26.390625,20.390625 C26.651043,20.130207 26.9548594,20 27.3020833,20 C27.5625013,20 27.8012142,20.0651035 28.0182292,20.1953125 L46.1171875,31.0026042 Z" id="ion-play---Ionicons"></path>
            </g>
        </g>
    </g>
</svg>