<?xml version="1.0" encoding="UTF-8"?>
<svg width="21px" height="21px" viewBox="0 0 21 21" version="1.1" xmlns="http://www.w3.org/2000/svg" xmlns:xlink="http://www.w3.org/1999/xlink">
    <!-- Generator: Sketch 49.1 (51147) - http://www.bohemiancoding.com/sketch -->
    <title>Group</title>
    <desc>Created with Sketch.</desc>
    <defs></defs>
    <g id="Details" stroke="none" stroke-width="1" fill="none" fill-rule="evenodd">
        <g id="Playing-Now-2" transform="translate(-41.000000, -458.000000)" fill="#B2B2B2">
            <g id="Group" transform="translate(41.000000, 458.000000)">
                <polygon id="close---material" points="8 0.810996564 4.81099656 4 8 7.18900344 7.18900344 8 4 4.81099656 0.810996564 8 0 7.18900344 3.18900344 4 0 0.810996564 0.810996564 0 4 3.18900344 7.18900344 0"></polygon>
                <path d="M20.0260417,1 C20.291668,1 20.5203983,1.08928482 20.7122396,1.26785714 C20.9040808,1.44642946 21,1.66964152 21,1.9375 L21,15.4642857 C21,16.6250058 20.8229184,17.44345 20.46875,17.9196429 C20.0850675,18.544646 19.4505253,18.8571429 18.5651042,18.8571429 L16.9270833,18.8571429 C16.3072886,18.8571429 15.7686655,18.656252 15.3111979,18.2544643 C14.8537304,17.8526766 14.625,17.3392888 14.625,16.7142857 C14.625,16.0892826 14.8537304,15.5758949 15.3111979,15.1741071 C15.7686655,14.7723194 16.3072886,14.5714286 16.9270833,14.5714286 L19.5833333,14.5714286 L19.5833333,6 L10.375,7.69642857 L10.375,18.0535714 C10.375,18.7380987 10.1831616,19.3482116 9.79947917,19.8839286 C9.76996513,19.9136906 9.74045154,19.9508926 9.7109375,19.9955357 C9.68142346,20.0401788 9.66666667,20.0773808 9.66666667,20.1071429 L9.578125,20.1964286 C9.13541445,20.7321455 8.57465617,21 7.89583333,21 L6.2578125,21 C5.63801773,21 5.10677305,20.7991092 4.6640625,20.3973214 C4.22135195,19.9955337 4,19.482146 4,18.8571429 C4,18.2321397 4.22135195,17.718752 4.6640625,17.3169643 C5.10677305,16.9151766 5.63801773,16.7142857 6.2578125,16.7142857 L8.95833333,16.7142857 L8.95833333,3.94642857 C8.98784737,3.64880804 9.11328014,3.35863237 9.33463542,3.07589286 C9.55599069,2.79315335 9.82899143,2.6071433 10.1536458,2.51785714 L19.8046875,1.04464286 C19.8932296,1.0148808 19.9670136,1 20.0260417,1 Z" id=""></path>
            </g>
        </g>
    </g>
</svg>