<?xml version="1.0" encoding="UTF-8"?>
<svg width="23px" height="23px" viewBox="0 0 23 23" version="1.1" xmlns="http://www.w3.org/2000/svg" xmlns:xlink="http://www.w3.org/1999/xlink">
    <!-- Generator: Sketch 49.1 (51147) - http://www.bohemiancoding.com/sketch -->
    <title>search</title>
    <desc>Created with Sketch.</desc>
    <defs></defs>
    <g id="Details" stroke="none" stroke-width="1" fill="none" fill-rule="evenodd" opacity="0.2">
        <g id="Top-100" transform="translate(-220.000000, -628.000000)" fill="#000000" fill-rule="nonzero">
            <g id="Nav" transform="translate(-7.000000, 616.000000)">
                <g id="search" transform="translate(227.000000, 12.000000)">
                    <path d="M22.6503001,20.9493558 L16.9804066,15.2560826 C18.4382359,13.5829442 19.2369891,11.4777938 19.2369891,9.28624092 C19.2369891,4.16588842 14.9220488,0 9.61849455,0 C4.31494029,0 0,4.16588842 0,9.28624092 C0,14.4065934 4.31494029,18.5724818 9.61849455,18.5724818 C11.6095229,18.5724818 13.5068755,17.9926974 15.1290555,16.892076 L20.8420231,22.6285504 C21.0808127,22.8679739 21.4019868,23 21.7461616,23 C22.0719358,23 22.3809822,22.8800864 22.6155899,22.6620616 C23.1140788,22.1989608 23.1299702,21.431029 22.6503001,20.9493558 Z M9.61849455,2.42249763 C13.5386584,2.42249763 16.7278166,5.50149212 16.7278166,9.28624092 C16.7278166,13.0709897 13.5386584,16.1499842 9.61849455,16.1499842 C5.69833073,16.1499842 2.50917249,13.0709897 2.50917249,9.28624092 C2.50917249,5.50149212 5.69833073,2.42249763 9.61849455,2.42249763 Z" id="Shape"></path>
                </g>
            </g>
        </g>
    </g>
</svg>