<?xml version="1.0" encoding="UTF-8"?>
<svg width="23px" height="26px" viewBox="0 0 23 26" version="1.1" xmlns="http://www.w3.org/2000/svg" xmlns:xlink="http://www.w3.org/1999/xlink">
    <!-- Generator: Sketch 49.1 (51147) - http://www.bohemiancoding.com/sketch -->
    <title>fire</title>
    <desc>Created with Sketch.</desc>
    <defs>
        <linearGradient x1="6.29126996%" y1="50%" x2="93.5450898%" y2="50%" id="linearGradient-1">
            <stop stop-color="#7AFFA0" offset="0%"></stop>
            <stop stop-color="#62D8FF" offset="100%"></stop>
        </linearGradient>
    </defs>
    <g id="Details" stroke="none" stroke-width="1" fill="none" fill-rule="evenodd">
        <g id="Top-100" transform="translate(-36.000000, -626.000000)" fill="url(#linearGradient-1)" fill-rule="nonzero">
            <g id="Nav" transform="translate(-7.000000, 616.000000)">
                <g id="fire" transform="translate(43.000000, 10.000000)">
                    <path d="M6.47481505,26 C4.70931815,22.3943502 5.6495092,20.3282752 7.00642606,18.3817352 C8.49238387,16.2499939 8.87533453,14.1398488 8.87533453,14.1398488 C8.87533453,14.1398488 10.0434582,15.6302835 9.576169,17.9613637 C11.639831,15.7066748 12.0292883,12.1143826 11.7176628,10.738608 C16.3823098,13.9380725 18.3758883,20.865793 15.6892237,26 C29.9788462,18.064665 19.2436615,6.19096137 17.3747033,4.85345553 C17.9977059,6.19091262 18.1158693,8.45510778 16.8573474,9.55393347 C14.7269298,1.62498477 9.45939637,0 9.45939637,0 C10.082399,4.08900631 7.20112989,8.56031035 4.42272603,11.9013449 C4.32512576,10.2708514 4.22141617,9.14574947 3.34783171,7.58545599 C3.15173714,10.5474103 0.845440401,12.9618531 0.220898047,15.92956 C-0.625070251,19.9485125 0.854579561,22.8911618 6.47481505,26 Z" id="Shape"></path>
                </g>
            </g>
        </g>
    </g>
</svg>