<?xml version="1.0" encoding="UTF-8"?>
<svg width="22px" height="22px" viewBox="0 0 22 22" version="1.1" xmlns="http://www.w3.org/2000/svg" xmlns:xlink="http://www.w3.org/1999/xlink">
    <!-- Generator: Sketch 49.1 (51147) - http://www.bohemiancoding.com/sketch -->
    <title>question - simple-line-icons</title>
    <desc>Created with Sketch.</desc>
    <defs></defs>
    <g id="Details" stroke="none" stroke-width="1" fill="none" fill-rule="evenodd">
        <g id="Playing-Now-2" transform="translate(-41.000000, -499.000000)" fill="#B2B2B2">
            <path d="M51.75,499.5 C53.2337314,499.5 54.6299576,499.779945 55.9387207,500.339844 C57.2474838,500.899742 58.3882601,501.666092 59.361084,502.638916 C60.3339079,503.61174 61.1002576,504.752516 61.6601562,506.061279 C62.2200549,507.370042 62.5,508.766269 62.5,510.25 C62.5,511.733731 62.2200549,513.129958 61.6601562,514.438721 C61.1002576,515.747484 60.3339079,516.88826 59.361084,517.861084 C58.3882601,518.833908 57.2474838,519.600258 55.9387207,520.160156 C54.6299576,520.720055 53.2337314,521 51.75,521 C50.2662686,521 48.8700424,520.720055 47.5612793,520.160156 C46.2525162,519.600258 45.1117399,518.833908 44.138916,517.861084 C43.1660921,516.88826 42.3997424,515.747484 41.8398438,514.438721 C41.2799451,513.129958 41,511.733731 41,510.25 C41,508.766269 41.2799451,507.370042 41.8398438,506.061279 C42.3997424,504.752516 43.1660921,503.61174 44.138916,502.638916 C45.1117399,501.666092 46.2525162,500.899742 47.5612793,500.339844 C48.8700424,499.779945 50.2662686,499.5 51.75,499.5 Z M51.75,519.677246 C53.0517643,519.677246 54.2730249,519.428795 55.4138184,518.931885 C56.5546118,518.434975 57.548417,517.759607 58.3952637,516.905762 C59.2421104,516.051916 59.9139786,515.054612 60.4108887,513.913818 C60.9077987,512.773025 61.15625,511.551764 61.15625,510.25 C61.15625,508.948236 60.9077987,507.726975 60.4108887,506.586182 C59.9139786,505.445388 59.2421104,504.451583 58.3952637,503.604736 C57.548417,502.75789 56.5546118,502.086021 55.4138184,501.589111 C54.2730249,501.092201 53.0517643,500.84375 51.75,500.84375 C50.4482357,500.84375 49.2269751,501.092201 48.0861816,501.589111 C46.9453882,502.086021 45.951583,502.75789 45.1047363,503.604736 C44.2578896,504.451583 43.5860214,505.445388 43.0891113,506.586182 C42.5922013,507.726975 42.34375,508.948236 42.34375,510.25 C42.34375,511.551764 42.5922013,512.773025 43.0891113,513.913818 C43.5860214,515.054612 44.2578896,516.051916 45.1047363,516.905762 C45.951583,517.759607 46.9453882,518.434975 48.0861816,518.931885 C49.2269751,519.428795 50.4482357,519.677246 51.75,519.677246 Z M50.7631836,516.296875 L50.7631836,514.596191 L52.4428711,514.596191 L52.4428711,516.296875 L50.7631836,516.296875 Z M51.7290039,504.203125 C52.2749051,504.203125 52.7543111,504.269612 53.1672363,504.402588 C53.5801616,504.535564 53.9405909,504.742023 54.2485352,505.021973 C54.5424819,505.287925 54.7629387,505.613361 54.9099121,505.998291 C55.0568855,506.383221 55.1303711,506.820636 55.1303711,507.310547 C55.1303711,507.674481 55.0813807,508.017414 54.9833984,508.339355 C54.8854162,508.661297 54.7454436,508.969237 54.5634766,509.263184 C54.367512,509.543133 54.1400566,509.833576 53.8811035,510.134521 C53.6221504,510.435467 53.338706,510.739907 53.0307617,511.047852 C52.8767896,511.201824 52.7543136,511.345296 52.6633301,511.478271 C52.5723466,511.611247 52.5128582,511.733723 52.4848633,511.845703 C52.4568683,511.957683 52.4358725,512.108153 52.421875,512.297119 C52.4078775,512.486085 52.4008789,512.699543 52.4008789,512.9375 L50.7841797,512.9375 C50.7841797,512.545571 50.8016763,512.213136 50.8366699,511.940186 C50.8716636,511.667235 50.9241533,511.453777 50.9941406,511.299805 C51.0501305,511.145833 51.1656078,510.967368 51.3405762,510.764404 C51.5155445,510.561441 51.7429999,510.333986 52.0229492,510.082031 C52.2889011,509.76009 52.5198558,509.476645 52.7158203,509.231689 C52.9117848,508.986734 53.0657546,508.780274 53.1777344,508.612305 C53.2897141,508.430338 53.3736976,508.237875 53.4296875,508.034912 C53.4856774,507.831949 53.5136719,507.604493 53.5136719,507.352539 C53.5136719,507.07259 53.4751794,506.820639 53.3981934,506.59668 C53.3212073,506.37272 53.2057299,506.183757 53.0517578,506.029785 C52.8977857,505.875813 52.712322,505.756836 52.4953613,505.672852 C52.2784006,505.588867 52.0229507,505.546875 51.7290039,505.546875 C51.4770495,505.546875 51.2460948,505.581868 51.0361328,505.651855 C50.8261708,505.721843 50.6372079,505.826822 50.4692383,505.966797 C50.2872712,506.092774 50.1542973,506.31673 50.0703125,506.638672 C49.9863277,506.960614 49.9443359,507.254556 49.9443359,507.520508 L48.390625,507.520508 L48.3696289,507.45752 C48.3556314,507.023598 48.4256177,506.568687 48.5795898,506.092773 C48.733562,505.61686 48.9715153,505.245932 49.293457,504.97998 C49.6153987,504.714029 49.9793274,504.518067 50.3852539,504.39209 C50.7911804,504.266113 51.2390926,504.203125 51.7290039,504.203125 Z" id="question---simple-line-icons"></path>
        </g>
    </g>
</svg>